<svg id="Layer_1" enable-background="new 0 0 176 176" height="512" viewBox="0 0 176 176" width="512" xmlns="http://www.w3.org/2000/svg"><g><g id="_05.snapchat"><path id="background" d="m144.5 173c-37.6 4-75.4 4-113 0-15-1.6-26.9-13.5-28.5-28.5-4-37.6-4-75.4 0-113 1.6-15 13.5-26.9 28.5-28.5 37.6-4 75.4-4 113 0 15 1.6 26.9 13.5 28.5 28.5 4 37.6 4 75.4 0 113-1.6 15-13.5 26.9-28.5 28.5z" fill="#fffc00"/><path id="icon" d="m88.7 139.7h-.8-.6c-6.8 0-11.3-3.2-15.2-5.9-2.6-1.8-5-3.5-7.7-4-1.4-.2-2.7-.3-4.1-.3-1.9 0-3.9.2-5.8.6-.8.2-1.7.3-2.5.4-1.4.1-2.7-.8-3-2.2-.3-.9-.5-1.8-.6-2.6-.2-.8-.4-1.6-.6-2.3-8.6-1.3-13.3-3.3-14.5-6-.2-.4-.2-.8-.3-1.2-.1-1.3.9-2.5 2.2-2.8 14.6-2.4 21.3-17.4 21.5-18.1l.1-.1c.7-1.1.9-2.4.5-3.7-.8-1.9-3.9-2.8-5.9-3.5-.6-.2-1.2-.4-1.6-.6-5.3-2.1-6-4.6-5.7-6.3.5-2.4 3.3-4 5.7-4 .6 0 1.3.1 1.9.4 1.5.8 3.2 1.2 4.9 1.3.6 0 1.2-.1 1.8-.3 0-.6-.2-2.4-.2-2.4-.5-7.5-1-16.8 1.4-22.3 7.3-16.3 22.8-17.6 27.3-17.6h2.2c4.6 0 20.1 1.3 27.4 17.6 2.5 5.5 1.9 14.8 1.4 22.3 0 0-.1 1.7-.2 2.4.5.2 1 .3 1.4.3 1.6-.1 3.1-.6 4.6-1.3.7-.3 1.5-.5 2.3-.5s1.7.2 2.4.5c2.1.8 3.5 2.4 3.5 4.1.1 2.3-1.9 4.2-5.8 5.7-.4.2-.9.3-1.5.5h-.1c-2 .7-5.1 1.6-5.9 3.5-.4 1.2-.2 2.6.5 3.7l.1.2c.3.6 6.9 15.7 21.5 18.1 1.3.2 2.3 1.4 2.2 2.7 0 .4-.1.8-.3 1.2-1.1 2.7-5.9 4.7-14.5 6-.3.8-.5 1.5-.6 2.3-.2.9-.4 1.7-.6 2.6-.3 1.3-1.5 2.2-2.9 2.1-.9 0-1.7-.1-2.5-.3-1.9-.4-3.8-.6-5.8-.6-1.4 0-2.8.1-4.1.3-2.7.4-5.1 2.2-7.7 4-3.9 3-8.4 6.1-15.2 6.1z" fill="#fff"/></g></g></svg>